<svg id="Layer_1" data-name="Layer 1" xmlns="http://www.w3.org/2000/svg" xmlns:xlink="http://www.w3.org/1999/xlink" viewBox="0 0 244.56 266.55"><defs><style>.cls-1{fill:none;}.cls-2{fill:#3ca79b;}.cls-3{fill:#002f42;}.cls-4{fill:url(#linear-gradient);}.cls-5{fill:url(#linear-gradient-2);}.cls-6{fill:url(#linear-gradient-3);}</style><linearGradient id="linear-gradient" x1="40.89" y1="267.95" x2="111.81" y2="101.89" gradientUnits="userSpaceOnUse"><stop offset="0" stop-color="#fff" stop-opacity="0"/><stop offset="1" stop-opacity="0.4"/></linearGradient><linearGradient id="linear-gradient-2" x1="130.31" y1="78.29" x2="132.76" y2="238.75" xlink:href="#linear-gradient"/><linearGradient id="linear-gradient-3" x1="114.85" y1="69.04" x2="115.64" y2="230.88" xlink:href="#linear-gradient"/></defs><rect class="cls-1" x="95.7" y="137.27" height="29"/><rect class="cls-1" x="98" y="166.27" width="29.16"/><path class="cls-1" d="M142.78,200.55a22.7,22.7,0,0,1-4.34,6.26q-7,7-20.93,8.05h0q13.9-1,20.93-8.05A22.35,22.35,0,0,0,142.78,200.55Z" transform="translate(-19.51 -8.46)"/><path class="cls-1" d="M79.33,139.34v1.57l15.94-35.75a24.34,24.34,0,0,0-7.83,5.54Q79.33,119.43,79.33,139.34Z" transform="translate(-19.51 -8.46)"/><path class="cls-1" d="M117.51,174.73h-2.3v-29h2.3V131.54l-32.13,72a21.76,21.76,0,0,0,2.06,2.63Q95.56,215,112.51,215c1.74,0,3.4-.07,5-.18h0Z" transform="translate(-19.51 -8.46)"/><path class="cls-2" d="M117.51,71h-5c1.7,0,3.36,0,5,.08Z" transform="translate(-19.51 -8.46)"/><polygon class="cls-2" points="235.85 0 197.69 32.08 206.37 35.23 160.29 137.27 132 199.91 115.8 235.78 115 237.55 149 237.55 236.27 46.08 244.56 49.09 235.85 0"/><path class="cls-3" d="M186,125.82q-2.2-28.26-20.4-41.54a58.12,58.12,0,0,0-14.09-7.39v48.93Z" transform="translate(-19.51 -8.46)"/><rect x="95.7" y="137.27" width="2.3"/><rect x="95.7" y="166.27" width="2.3"/><path class="cls-3" d="M151.51,145.73h-38.3v29h33.46v4.18q0,13.53-3.89,21.64a22.35,22.35,0,0,1-4.34,6.26q-7,7-20.93,8.05c-1.6.11-3.26.18-5,.18q-17,0-25.07-8.85a21.76,21.76,0,0,1-2.06-2.63L69.93,238.2Q86.55,246,112.51,246c1.7,0,3.36.05,5,0h17l.8-1.77,16.2-35.87,28.29-62.64Z" transform="translate(-19.51 -8.46)"/><path d="M142.78,200.55q3.9-8.12,3.89-21.64v-4.18h0v4.18Q146.67,192.43,142.78,200.55Z" transform="translate(-19.51 -8.46)"/><path class="cls-3" d="M112.51,71h-2v0q-37,.43-54.52,17Q38,105.18,38,143.52V173q0,26,8.13,42.23l33.16-74.33v-1.57q0-19.91,8.11-28.64a24.34,24.34,0,0,1,7.83-5.54q7-3.16,17.24-3.18c1.74,0,3.39.08,5,.21V71.09C115.87,71,114.21,71,112.51,71Z" transform="translate(-19.51 -8.46)"/><path class="cls-2" d="M112.51,102q-10.23,0-17.24,3.18L79.33,140.91,46.17,215.24,19.51,275h34L69.93,238.2l15.45-34.64,32.13-72V102.19C115.9,102.06,114.25,102,112.51,102Z" transform="translate(-19.51 -8.46)"/><path class="cls-4" d="M112.51,102q-10.23,0-17.24,3.18L79.33,140.91,46.17,215.24,19.51,275h34L69.93,238.2l15.45-34.64,32.13-72V102.19C115.9,102.06,114.25,102,112.51,102Z" transform="translate(-19.51 -8.46)"/><path class="cls-2" d="M117.51,214.86q13.9-1,20.93-8.05a22.7,22.7,0,0,0,4.34-6.26q3.89-8.12,3.89-21.64v-4.18H117.51Z" transform="translate(-19.51 -8.46)"/><polygon class="cls-2" points="98 62.55 98 62.63 98 93.73 98 123.08 98 129.53 98 137.27 98 137.27 132 137.27 132 117.36 132 68.43 132 62.55 98 62.55"/><path class="cls-5" d="M117.51,214.86q13.9-1,20.93-8.05a22.7,22.7,0,0,0,4.34-6.26q3.89-8.12,3.89-21.64v-4.18H117.51Z" transform="translate(-19.51 -8.46)"/><polygon class="cls-6" points="98 62.55 98 62.63 98 93.73 98 123.08 98 129.53 98 137.27 98 137.27 132 137.27 132 117.36 132 68.43 132 62.55 98 62.55"/></svg>